<?xml version="1.0" standalone="no"?>
<!DOCTYPE svg PUBLIC "-//W3C//DTD SVG 20010904//EN"
 "http://www.w3.org/TR/2001/REC-SVG-20010904/DTD/svg10.dtd">
<svg version="1.0" xmlns="http://www.w3.org/2000/svg"
 width="2209.000000pt" height="667.000000pt" viewBox="0 0 2209.000000 667.000000"
 preserveAspectRatio="xMidYMid meet">

<g transform="translate(0.000000,667.000000) scale(0.100000,-0.100000)"
fill="#000000" stroke="none">
<path d="M1395 6654 c-311 -42 -546 -112 -700 -208 -270 -168 -413 -333 -513
-592 -86 -223 -85 -334 3 -363 17 -6 116 -20 220 -31 105 -11 224 -25 265 -30
273 -35 290 -28 332 124 66 240 267 386 533 386 106 0 236 -31 283 -67 68 -52
86 -70 118 -121 58 -90 74 -175 74 -388 l0 -182 -27 -6 c-16 -2 -59 -8 -98
-11 -653 -58 -1020 -138 -1258 -272 -33 -18 -61 -33 -63 -33 -18 0 -148 -104
-225 -180 -169 -167 -267 -352 -315 -596 -22 -109 -25 -383 -6 -494 25 -147
94 -325 164 -429 77 -112 213 -228 340 -289 152 -73 312 -106 523 -105 208 1
347 20 495 70 168 57 292 134 482 301 70 61 130 112 132 112 2 0 19 -24 37
-52 94 -149 206 -277 322 -370 41 -32 56 -38 97 -38 52 0 91 21 170 94 52 47
75 67 303 263 105 91 169 154 173 170 13 51 -3 103 -55 176 -151 211 -200 314
-220 460 -7 51 -11 357 -11 865 0 924 -4 985 -84 1190 -124 321 -410 528 -856
619 -110 22 -154 26 -365 28 -132 2 -253 1 -270 -1z m610 -2289 c-1 -308 -11
-375 -84 -531 -76 -160 -173 -269 -295 -328 -99 -48 -129 -56 -210 -56 -126 0
-222 43 -302 133 -80 92 -114 202 -114 375 0 366 213 575 670 657 40 7 273 23
310 21 l25 -1 0 -270z"/>
<path d="M10340 6653 c-63 -5 -254 -41 -320 -60 -170 -46 -345 -126 -470 -212
-80 -55 -213 -186 -269 -264 -54 -75 -115 -188 -142 -263 -22 -64 -69 -240
-69 -262 0 -33 35 -85 65 -98 18 -7 185 -30 372 -50 376 -42 380 -41 418 19
12 17 27 57 34 87 57 236 269 390 536 390 248 0 414 -122 459 -336 15 -69 25
-409 12 -421 -3 -3 -126 -18 -273 -34 -416 -43 -590 -72 -798 -132 -505 -145
-817 -463 -912 -930 -22 -104 -24 -409 -5 -512 62 -327 241 -577 502 -702 159
-76 308 -106 520 -106 294 0 519 53 715 168 105 61 278 203 358 293 12 12 26
22 33 22 6 0 27 -24 45 -52 96 -152 231 -305 333 -380 65 -47 141 -37 211 28
11 11 74 66 140 124 66 57 122 107 125 110 3 3 19 16 35 29 17 12 46 37 65 54
19 18 61 54 93 80 91 77 92 140 5 254 -133 174 -185 277 -213 423 -12 62 -15
211 -15 856 0 778 -5 914 -36 1064 -75 358 -302 600 -684 727 -208 69 -306 84
-580 88 -135 1 -265 1 -290 -2z m628 -2228 c3 -223 -8 -354 -38 -461 -60 -209
-191 -383 -345 -459 -96 -46 -151 -58 -245 -53 -181 11 -329 145 -369 336 -14
65 -14 261 -1 322 39 174 148 314 309 398 65 33 226 85 321 102 64 11 290 29
340 26 l25 -1 3 -210z"/>
<path d="M5420 6623 c-333 -54 -546 -213 -697 -520 -30 -62 -59 -110 -64 -107
-5 3 -9 112 -9 242 0 261 -3 273 -60 303 -32 17 -63 19 -378 19 -381 0 -396
-2 -430 -64 -16 -29 -17 -154 -20 -1796 -3 -1937 -6 -1819 56 -1865 26 -19 43
-20 412 -20 362 0 387 1 413 19 60 41 57 -26 57 1178 1 1151 3 1237 45 1393
41 153 121 262 233 317 64 32 71 33 192 33 117 0 129 -2 182 -28 96 -48 166
-136 203 -257 41 -132 43 -216 44 -1420 1 -1100 2 -1156 19 -1180 43 -58 54
-60 445 -60 396 0 410 2 447 62 20 33 20 48 20 1113 0 594 4 1130 9 1190 20
231 60 344 158 442 67 67 155 116 241 134 68 14 202 -1 269 -31 57 -25 130
-95 159 -152 59 -117 57 -69 58 -1425 1 -1239 1 -1242 22 -1270 45 -62 52 -63
454 -63 344 0 367 1 397 20 67 41 63 -68 63 1487 0 958 -3 1434 -10 1488 -25
178 -75 320 -157 440 -230 336 -722 474 -1156 324 -242 -84 -424 -251 -548
-505 -17 -35 -32 -64 -35 -64 -2 0 -21 35 -43 78 -160 318 -353 479 -645 536
-72 15 -279 20 -346 9z"/>
<path d="M16945 6611 c-357 -65 -610 -211 -847 -488 -82 -96 -195 -292 -260
-453 -190 -465 -228 -1101 -97 -1651 17 -71 39 -152 50 -181 11 -29 27 -73 35
-98 56 -163 198 -404 321 -542 130 -146 325 -287 483 -349 30 -11 64 -25 75
-30 94 -41 331 -79 493 -79 512 0 951 244 1235 688 85 133 194 375 227 507 4
17 17 64 28 105 53 194 77 449 68 715 -5 171 -31 404 -55 510 -44 183 -75 288
-122 401 -38 93 -124 262 -145 285 -8 8 -14 19 -14 23 0 7 -63 93 -110 151
-60 74 -213 215 -285 263 -44 29 -120 73 -170 97 -130 63 -190 82 -380 125
-27 6 -135 13 -240 15 -154 4 -209 1 -290 -14z m384 -706 c170 -40 275 -156
335 -367 54 -192 74 -350 86 -658 12 -336 -6 -692 -45 -885 -47 -231 -162
-417 -302 -489 -100 -50 -261 -59 -349 -20 -219 101 -336 367 -374 858 -13
167 -13 665 0 797 30 299 83 477 184 607 108 141 282 200 465 157z"/>
<path d="M20903 6616 c-141 -27 -281 -85 -362 -149 -65 -53 -163 -162 -213
-239 -48 -74 -128 -224 -128 -242 0 -4 -8 -19 -17 -33 -17 -26 -18 -18 -23
254 -5 263 -6 282 -25 303 -42 48 -63 50 -417 50 -302 0 -337 -2 -374 -19 -81
-37 -74 129 -74 -1852 0 -1734 0 -1763 20 -1803 35 -73 22 -71 437 -74 359 -3
373 -2 412 18 76 38 71 -42 71 1125 0 640 4 1083 10 1143 32 304 128 507 287
609 155 99 375 77 489 -50 51 -57 63 -77 92 -162 52 -148 52 -149 52 -1414 0
-1133 1 -1177 19 -1207 38 -62 50 -64 450 -64 400 0 414 2 451 62 21 33 21 35
17 1368 -4 1389 -4 1387 -46 1620 -26 143 -89 304 -156 400 -119 169 -289 282
-510 341 -103 27 -353 35 -462 15z"/>
<path d="M12832 6553 c-65 -32 -67 -40 -70 -323 -4 -308 -1 -333 43 -377 l33
-33 605 0 c333 0 608 -4 611 -8 3 -5 -61 -103 -142 -219 -81 -115 -210 -301
-287 -412 -119 -172 -246 -353 -420 -601 -21 -30 -46 -66 -56 -80 -9 -14 -59
-86 -111 -160 -52 -74 -116 -166 -143 -205 -47 -67 -72 -104 -151 -217 -43
-61 -77 -134 -94 -203 -17 -70 -26 -656 -11 -711 14 -51 53 -92 96 -100 25 -4
47 2 96 27 35 18 66 34 69 34 3 1 37 16 75 34 148 68 372 134 588 171 108 19
424 43 451 35 6 -2 70 -6 141 -9 126 -6 154 -10 335 -43 187 -34 394 -102 579
-189 121 -57 169 -66 209 -38 50 34 52 52 52 371 0 166 -5 314 -10 334 -19 66
-72 114 -193 173 -179 87 -251 112 -448 160 -175 42 -473 76 -661 76 -41 0
-68 4 -68 10 0 9 211 314 571 825 20 28 57 82 84 120 27 39 101 144 165 235
324 460 442 633 465 684 25 54 25 58 25 310 0 272 -3 292 -49 323 -24 17 -96
18 -1186 20 -1062 3 -1163 1 -1193 -14z"/>
</g>
</svg>
